# xmcd
# 
# Track frame offsets:
#     150
#     15692
#     29450
#     44795
#     56522
#     68700
#     81415
#     93572
#     110705
#     123842
#     137597
#     150160
#     175552
#     195877
# 
# Disc length: 2782
# 
# Revision: 1
# Processed by: cddbd v1.5.2PL0 Copyright (c) Steve Scherf et al.
# Submitted via: fre:ac v1.0.31
# 
DISCID=b10adc0e
DTITLE=Roots of Rhythm - It Must Be Spring
DYEAR=2000
DGENRE=R&B
TTITLE0=Ella Fitzgerald/Isn't This a Lovely Day
TTITLE1=Maxine Sullivan/Blue Skies
TTITLE2=Louis Armstrong/La Vie en Rose (The Rosy Life)
TTITLE3=Hugh Masekela/Grazing in the Grass
TTITLE4=Bobby Hebb/Sunny
TTITLE5=The Dixie Cups/Chapel of Love
TTITLE6=Sarah Vaughan/Spring Will be a Little Later This Year
TTITLE7=Count Basie/April in Paris
TTITLE8=Mildred Bailey/Honeysuckle Rose
TTITLE9=Charlie Parker/I'll Remember April
TTITLE10=Erroll Garner/Misty
TTITLE11=Oscar Peterson/Tenderly
TTITLE12=Love Unlimited/Walkin' in the Rain with the One I Love
TTITLE13=Patty LaBelle and the Bluebelles/Over the Rainbow
EXTD=
EXTT0=
EXTT1=
EXTT2=
EXTT3=
EXTT4=
EXTT5=
EXTT6=
EXTT7=
EXTT8=
EXTT9=
EXTT10=
EXTT11=
EXTT12=
EXTT13=
PLAYORDER=
